{
	"patcher" : 	{
		"fileversion" : 1,
		"appversion" : 		{
			"major" : 5,
			"minor" : 1,
			"revision" : 9
		}
,
		"rect" : [ 526.0, 100.0, 510.0, 411.0 ],
		"bgcolor" : [ 0.862745, 0.862745, 0.862745, 1.0 ],
		"bglocked" : 0,
		"defrect" : [ 526.0, 100.0, 510.0, 411.0 ],
		"openrect" : [ 0.0, 0.0, 0.0, 0.0 ],
		"openinpresentation" : 1,
		"default_fontsize" : 12.0,
		"default_fontface" : 0,
		"default_fontname" : "Arial",
		"gridonopen" : 0,
		"gridsize" : [ 15.0, 15.0 ],
		"gridsnaponopen" : 0,
		"toolbarvisible" : 1,
		"boxanimatetime" : 200,
		"imprint" : 0,
		"enablehscroll" : 1,
		"enablevscroll" : 1,
		"devicewidth" : 0.0,
		"boxes" : [ 			{
				"box" : 				{
					"maxclass" : "comment",
					"text" : "preview",
					"numoutlets" : 0,
					"fontsize" : 11.0,
					"patching_rect" : [ 40.0, 106.0, 139.0, 19.0 ],
					"presentation" : 1,
					"id" : "obj-59",
					"fontname" : "Arial",
					"numinlets" : 1,
					"presentation_rect" : [ 39.0, 114.0, 139.0, 19.0 ]
				}

			}
, 			{
				"box" : 				{
					"maxclass" : "panel",
					"numoutlets" : 0,
					"patching_rect" : [ 626.0, 328.0, 140.0, 23.0 ],
					"presentation" : 1,
					"id" : "obj-57",
					"numinlets" : 1,
					"presentation_rect" : [ 268.0, 46.0, 196.0, 4.0 ]
				}

			}
, 			{
				"box" : 				{
					"maxclass" : "comment",
					"text" : "NOTE IN",
					"numoutlets" : 0,
					"fontsize" : 14.0,
					"patching_rect" : [ 313.0, 21.0, 172.0, 23.0 ],
					"presentation" : 1,
					"id" : "obj-58",
					"fontname" : "Arial",
					"numinlets" : 1,
					"presentation_rect" : [ 268.0, 21.0, 180.0, 23.0 ]
				}

			}
, 			{
				"box" : 				{
					"maxclass" : "panel",
					"numoutlets" : 0,
					"patching_rect" : [ 627.0, 364.0, 140.0, 23.0 ],
					"presentation" : 1,
					"id" : "obj-55",
					"numinlets" : 1,
					"presentation_rect" : [ 39.0, 46.0, 196.0, 4.0 ]
				}

			}
, 			{
				"box" : 				{
					"maxclass" : "comment",
					"text" : "CONTROLER IN",
					"numoutlets" : 0,
					"fontsize" : 14.0,
					"patching_rect" : [ 89.0, 16.0, 172.0, 23.0 ],
					"presentation" : 1,
					"id" : "obj-54",
					"fontname" : "Arial",
					"numinlets" : 1,
					"presentation_rect" : [ 39.0, 21.0, 180.0, 23.0 ]
				}

			}
, 			{
				"box" : 				{
					"maxclass" : "comment",
					"text" : "click btn to asign",
					"numoutlets" : 0,
					"fontsize" : 11.0,
					"patching_rect" : [ 289.0, 65.0, 139.0, 19.0 ],
					"presentation" : 1,
					"id" : "obj-53",
					"fontname" : "Arial",
					"numinlets" : 1,
					"presentation_rect" : [ 39.0, 223.0, 139.0, 19.0 ]
				}

			}
, 			{
				"box" : 				{
					"maxclass" : "comment",
					"text" : "VOLUME",
					"numoutlets" : 0,
					"fontsize" : 11.0,
					"patching_rect" : [ 380.0, 173.0, 139.0, 19.0 ],
					"presentation" : 1,
					"id" : "obj-52",
					"fontname" : "Arial",
					"numinlets" : 1,
					"presentation_rect" : [ 63.0, 360.0, 139.0, 19.0 ]
				}

			}
, 			{
				"box" : 				{
					"maxclass" : "comment",
					"text" : "DELAY FEEDBACK",
					"numoutlets" : 0,
					"fontsize" : 11.0,
					"patching_rect" : [ 380.0, 150.0, 139.0, 19.0 ],
					"presentation" : 1,
					"id" : "obj-51",
					"fontname" : "Arial",
					"numinlets" : 1,
					"presentation_rect" : [ 63.0, 337.0, 139.0, 19.0 ]
				}

			}
, 			{
				"box" : 				{
					"maxclass" : "comment",
					"text" : "DELAY TIME",
					"numoutlets" : 0,
					"fontsize" : 11.0,
					"patching_rect" : [ 380.0, 127.0, 139.0, 19.0 ],
					"presentation" : 1,
					"id" : "obj-50",
					"fontname" : "Arial",
					"numinlets" : 1,
					"presentation_rect" : [ 63.0, 314.0, 139.0, 19.0 ]
				}

			}
, 			{
				"box" : 				{
					"maxclass" : "comment",
					"text" : "VCF CUTOFF",
					"numoutlets" : 0,
					"fontsize" : 11.0,
					"patching_rect" : [ 380.0, 104.0, 139.0, 19.0 ],
					"presentation" : 1,
					"id" : "obj-49",
					"fontname" : "Arial",
					"numinlets" : 1,
					"presentation_rect" : [ 63.0, 291.0, 139.0, 19.0 ]
				}

			}
, 			{
				"box" : 				{
					"maxclass" : "comment",
					"text" : "LFO INT.",
					"numoutlets" : 0,
					"fontsize" : 11.0,
					"patching_rect" : [ 380.0, 81.0, 139.0, 19.0 ],
					"presentation" : 1,
					"id" : "obj-48",
					"fontname" : "Arial",
					"numinlets" : 1,
					"presentation_rect" : [ 63.0, 268.0, 139.0, 19.0 ]
				}

			}
, 			{
				"box" : 				{
					"maxclass" : "comment",
					"text" : "refresh",
					"numoutlets" : 0,
					"fontsize" : 11.0,
					"patching_rect" : [ 876.0, 154.0, 139.0, 19.0 ],
					"presentation" : 1,
					"id" : "obj-47",
					"fontname" : "Arial",
					"numinlets" : 1,
					"presentation_rect" : [ 292.0, 57.0, 43.0, 19.0 ]
				}

			}
, 			{
				"box" : 				{
					"maxclass" : "comment",
					"text" : "refresh",
					"numoutlets" : 0,
					"fontsize" : 11.0,
					"patching_rect" : [ 102.0, 32.0, 139.0, 19.0 ],
					"presentation" : 1,
					"id" : "obj-43",
					"fontname" : "Arial",
					"numinlets" : 1,
					"presentation_rect" : [ 63.0, 57.0, 43.0, 19.0 ]
				}

			}
, 			{
				"box" : 				{
					"maxclass" : "button",
					"numoutlets" : 1,
					"outlettype" : [ "bang" ],
					"patching_rect" : [ 856.0, 152.0, 20.0, 20.0 ],
					"presentation" : 1,
					"id" : "obj-42",
					"numinlets" : 1,
					"presentation_rect" : [ 268.0, 56.0, 20.0, 20.0 ]
				}

			}
, 			{
				"box" : 				{
					"maxclass" : "button",
					"numoutlets" : 1,
					"outlettype" : [ "bang" ],
					"patching_rect" : [ 151.0, 24.0, 20.0, 20.0 ],
					"presentation" : 1,
					"id" : "obj-41",
					"numinlets" : 1,
					"presentation_rect" : [ 39.0, 56.0, 20.0, 20.0 ]
				}

			}
, 			{
				"box" : 				{
					"maxclass" : "comment",
					"text" : "VALUE",
					"numoutlets" : 0,
					"fontsize" : 11.0,
					"patching_rect" : [ 128.0, 136.0, 139.0, 19.0 ],
					"presentation" : 1,
					"id" : "obj-27",
					"fontname" : "Arial",
					"numinlets" : 1,
					"presentation_rect" : [ 92.0, 186.0, 63.0, 19.0 ]
				}

			}
, 			{
				"box" : 				{
					"maxclass" : "comment",
					"text" : "NO.",
					"numoutlets" : 0,
					"fontsize" : 11.0,
					"patching_rect" : [ 128.0, 112.0, 139.0, 19.0 ],
					"presentation" : 1,
					"id" : "obj-26",
					"fontname" : "Arial",
					"numinlets" : 1,
					"presentation_rect" : [ 92.0, 161.0, 75.0, 19.0 ]
				}

			}
, 			{
				"box" : 				{
					"maxclass" : "comment",
					"text" : "CH",
					"numoutlets" : 0,
					"fontsize" : 11.0,
					"patching_rect" : [ 130.0, 86.0, 139.0, 19.0 ],
					"presentation" : 1,
					"id" : "obj-25",
					"fontname" : "Arial",
					"numinlets" : 1,
					"presentation_rect" : [ 92.0, 137.0, 43.0, 19.0 ]
				}

			}
, 			{
				"box" : 				{
					"maxclass" : "comment",
					"text" : "LFO RATE",
					"numoutlets" : 0,
					"fontsize" : 11.0,
					"patching_rect" : [ 422.0, 176.0, 139.0, 19.0 ],
					"presentation" : 1,
					"id" : "obj-24",
					"fontname" : "Arial",
					"numinlets" : 1,
					"presentation_rect" : [ 63.0, 245.0, 139.0, 19.0 ]
				}

			}
, 			{
				"box" : 				{
					"maxclass" : "newobj",
					"text" : "bgcolor 220 220 220",
					"numoutlets" : 0,
					"fontsize" : 12.0,
					"patching_rect" : [ 391.0, 369.0, 120.0, 20.0 ],
					"id" : "obj-9",
					"fontname" : "Arial",
					"numinlets" : 4,
					"hidden" : 1
				}

			}
, 			{
				"box" : 				{
					"maxclass" : "newobj",
					"text" : "spray 6",
					"numoutlets" : 6,
					"fontsize" : 12.0,
					"outlettype" : [ "", "", "", "", "", "" ],
					"patching_rect" : [ 178.0, 342.0, 86.5, 20.0 ],
					"id" : "obj-45",
					"fontname" : "Arial",
					"numinlets" : 1
				}

			}
, 			{
				"box" : 				{
					"maxclass" : "newobj",
					"text" : "pack",
					"numoutlets" : 1,
					"fontsize" : 12.0,
					"outlettype" : [ "" ],
					"patching_rect" : [ 431.0, 265.0, 36.0, 20.0 ],
					"id" : "obj-44",
					"fontname" : "Arial",
					"numinlets" : 2
				}

			}
, 			{
				"box" : 				{
					"maxclass" : "message",
					"text" : "5",
					"numoutlets" : 1,
					"fontsize" : 12.0,
					"outlettype" : [ "" ],
					"patching_rect" : [ 592.0, 112.0, 32.5, 18.0 ],
					"id" : "obj-17",
					"fontname" : "Arial",
					"numinlets" : 2
				}

			}
, 			{
				"box" : 				{
					"maxclass" : "message",
					"text" : "4",
					"numoutlets" : 1,
					"fontsize" : 12.0,
					"outlettype" : [ "" ],
					"patching_rect" : [ 559.0, 112.0, 32.5, 18.0 ],
					"id" : "obj-23",
					"fontname" : "Arial",
					"numinlets" : 2
				}

			}
, 			{
				"box" : 				{
					"maxclass" : "message",
					"text" : "3",
					"numoutlets" : 1,
					"fontsize" : 12.0,
					"outlettype" : [ "" ],
					"patching_rect" : [ 526.0, 112.0, 32.5, 18.0 ],
					"id" : "obj-30",
					"fontname" : "Arial",
					"numinlets" : 2
				}

			}
, 			{
				"box" : 				{
					"maxclass" : "message",
					"text" : "2",
					"numoutlets" : 1,
					"fontsize" : 12.0,
					"outlettype" : [ "" ],
					"patching_rect" : [ 563.0, 87.0, 32.5, 18.0 ],
					"id" : "obj-31",
					"fontname" : "Arial",
					"numinlets" : 2
				}

			}
, 			{
				"box" : 				{
					"maxclass" : "message",
					"text" : "1",
					"numoutlets" : 1,
					"fontsize" : 12.0,
					"outlettype" : [ "" ],
					"patching_rect" : [ 530.0, 87.0, 32.5, 18.0 ],
					"id" : "obj-32",
					"fontname" : "Arial",
					"numinlets" : 2
				}

			}
, 			{
				"box" : 				{
					"maxclass" : "message",
					"text" : "0",
					"numoutlets" : 1,
					"fontsize" : 12.0,
					"outlettype" : [ "" ],
					"patching_rect" : [ 497.0, 87.0, 32.5, 18.0 ],
					"id" : "obj-33",
					"fontname" : "Arial",
					"numinlets" : 2
				}

			}
, 			{
				"box" : 				{
					"maxclass" : "newobj",
					"text" : "prepend set",
					"numoutlets" : 1,
					"fontsize" : 12.0,
					"outlettype" : [ "" ],
					"patching_rect" : [ 503.0, 146.0, 74.0, 20.0 ],
					"id" : "obj-34",
					"fontname" : "Arial",
					"numinlets" : 1
				}

			}
, 			{
				"box" : 				{
					"maxclass" : "button",
					"numoutlets" : 1,
					"outlettype" : [ "bang" ],
					"patching_rect" : [ 602.0, 44.0, 20.0, 20.0 ],
					"presentation" : 1,
					"id" : "obj-35",
					"numinlets" : 1,
					"presentation_rect" : [ 39.0, 360.0, 20.0, 20.0 ]
				}

			}
, 			{
				"box" : 				{
					"maxclass" : "button",
					"numoutlets" : 1,
					"outlettype" : [ "bang" ],
					"patching_rect" : [ 580.0, 44.0, 20.0, 20.0 ],
					"presentation" : 1,
					"id" : "obj-36",
					"numinlets" : 1,
					"presentation_rect" : [ 39.0, 337.0, 20.0, 20.0 ]
				}

			}
, 			{
				"box" : 				{
					"maxclass" : "button",
					"numoutlets" : 1,
					"outlettype" : [ "bang" ],
					"patching_rect" : [ 558.0, 44.0, 20.0, 20.0 ],
					"presentation" : 1,
					"id" : "obj-37",
					"numinlets" : 1,
					"presentation_rect" : [ 39.0, 314.0, 20.0, 20.0 ]
				}

			}
, 			{
				"box" : 				{
					"maxclass" : "button",
					"numoutlets" : 1,
					"outlettype" : [ "bang" ],
					"patching_rect" : [ 536.0, 44.0, 20.0, 20.0 ],
					"presentation" : 1,
					"id" : "obj-38",
					"numinlets" : 1,
					"presentation_rect" : [ 39.0, 291.0, 20.0, 20.0 ]
				}

			}
, 			{
				"box" : 				{
					"maxclass" : "button",
					"numoutlets" : 1,
					"outlettype" : [ "bang" ],
					"patching_rect" : [ 514.0, 44.0, 20.0, 20.0 ],
					"presentation" : 1,
					"id" : "obj-39",
					"numinlets" : 1,
					"presentation_rect" : [ 39.0, 268.0, 20.0, 20.0 ]
				}

			}
, 			{
				"box" : 				{
					"maxclass" : "button",
					"numoutlets" : 1,
					"outlettype" : [ "bang" ],
					"patching_rect" : [ 492.0, 44.0, 20.0, 20.0 ],
					"presentation" : 1,
					"id" : "obj-40",
					"numinlets" : 1,
					"presentation_rect" : [ 39.0, 245.0, 20.0, 20.0 ]
				}

			}
, 			{
				"box" : 				{
					"maxclass" : "newobj",
					"text" : "js connectctlin.js",
					"numoutlets" : 2,
					"fontsize" : 12.0,
					"outlettype" : [ "", "" ],
					"patching_rect" : [ 415.0, 229.0, 98.0, 20.0 ],
					"id" : "obj-1",
					"fontname" : "Arial",
					"numinlets" : 1
				}

			}
, 			{
				"box" : 				{
					"maxclass" : "inlet",
					"numoutlets" : 1,
					"outlettype" : [ "" ],
					"patching_rect" : [ 14.0, 80.0, 25.0, 25.0 ],
					"id" : "obj-20",
					"numinlets" : 0,
					"comment" : ""
				}

			}
, 			{
				"box" : 				{
					"maxclass" : "newobj",
					"text" : "t b i",
					"numoutlets" : 2,
					"fontsize" : 12.0,
					"outlettype" : [ "bang", "int" ],
					"patching_rect" : [ 85.0, 152.0, 32.5, 20.0 ],
					"id" : "obj-16",
					"fontname" : "Arial",
					"numinlets" : 1
				}

			}
, 			{
				"box" : 				{
					"maxclass" : "newobj",
					"text" : "pack ctlin 0 0 0",
					"numoutlets" : 1,
					"fontsize" : 12.0,
					"outlettype" : [ "" ],
					"patching_rect" : [ 79.0, 183.0, 91.0, 20.0 ],
					"id" : "obj-15",
					"fontname" : "Arial",
					"numinlets" : 4
				}

			}
, 			{
				"box" : 				{
					"maxclass" : "newobj",
					"text" : "s note_1",
					"numoutlets" : 0,
					"fontsize" : 12.0,
					"patching_rect" : [ 851.0, 325.0, 57.0, 20.0 ],
					"id" : "obj-13",
					"fontname" : "Arial",
					"numinlets" : 1
				}

			}
, 			{
				"box" : 				{
					"maxclass" : "newobj",
					"text" : "s note_0",
					"numoutlets" : 0,
					"fontsize" : 12.0,
					"patching_rect" : [ 800.0, 325.0, 57.0, 20.0 ],
					"id" : "obj-14",
					"fontname" : "Arial",
					"numinlets" : 1
				}

			}
, 			{
				"box" : 				{
					"maxclass" : "newobj",
					"text" : "s volume",
					"numoutlets" : 0,
					"fontsize" : 12.0,
					"patching_rect" : [ 404.0, 409.0, 59.0, 20.0 ],
					"id" : "obj-11",
					"fontname" : "Arial",
					"numinlets" : 1
				}

			}
, 			{
				"box" : 				{
					"maxclass" : "newobj",
					"text" : "s del_1",
					"numoutlets" : 0,
					"fontsize" : 12.0,
					"patching_rect" : [ 353.0, 409.0, 49.0, 20.0 ],
					"id" : "obj-12",
					"fontname" : "Arial",
					"numinlets" : 1
				}

			}
, 			{
				"box" : 				{
					"maxclass" : "newobj",
					"text" : "s del_0",
					"numoutlets" : 0,
					"fontsize" : 12.0,
					"patching_rect" : [ 298.0, 409.0, 49.0, 20.0 ],
					"id" : "obj-7",
					"fontname" : "Arial",
					"numinlets" : 1
				}

			}
, 			{
				"box" : 				{
					"maxclass" : "newobj",
					"text" : "s vcf_0",
					"numoutlets" : 0,
					"fontsize" : 12.0,
					"patching_rect" : [ 247.0, 409.0, 49.0, 20.0 ],
					"id" : "obj-8",
					"fontname" : "Arial",
					"numinlets" : 1
				}

			}
, 			{
				"box" : 				{
					"maxclass" : "newobj",
					"text" : "midiinfo",
					"numoutlets" : 1,
					"fontsize" : 11.595187,
					"outlettype" : [ "" ],
					"patching_rect" : [ 781.0, 185.0, 50.0, 20.0 ],
					"id" : "obj-3",
					"fontname" : "Arial",
					"numinlets" : 2
				}

			}
, 			{
				"box" : 				{
					"maxclass" : "umenu",
					"items" : [ "ネットワーク セッション 1", ",", "ProFire 610", ",", "to MaxMSP 1", ",", "to MaxMSP 2", ",", "nanoKONTROL2 SLIDER/KNOB" ],
					"numoutlets" : 3,
					"fontsize" : 11.595187,
					"outlettype" : [ "int", "", "" ],
					"types" : [  ],
					"patching_rect" : [ 781.0, 209.0, 179.0, 20.0 ],
					"presentation" : 1,
					"id" : "obj-5",
					"fontname" : "Arial",
					"numinlets" : 1,
					"presentation_rect" : [ 268.0, 81.0, 196.0, 20.0 ]
				}

			}
, 			{
				"box" : 				{
					"maxclass" : "newobj",
					"text" : "loadmess 0",
					"numoutlets" : 1,
					"fontsize" : 11.595187,
					"outlettype" : [ "" ],
					"patching_rect" : [ 781.0, 156.0, 70.0, 20.0 ],
					"id" : "obj-6",
					"fontname" : "Arial",
					"numinlets" : 1
				}

			}
, 			{
				"box" : 				{
					"maxclass" : "newobj",
					"text" : "midiinfo",
					"numoutlets" : 1,
					"fontsize" : 11.595187,
					"outlettype" : [ "" ],
					"patching_rect" : [ 76.0, 52.0, 50.0, 20.0 ],
					"id" : "obj-21",
					"fontname" : "Arial",
					"numinlets" : 2
				}

			}
, 			{
				"box" : 				{
					"maxclass" : "umenu",
					"items" : [ "ネットワーク セッション 1", ",", "ProFire 610", ",", "to MaxMSP 1", ",", "to MaxMSP 2", ",", "nanoKONTROL2 SLIDER/KNOB" ],
					"numoutlets" : 3,
					"fontsize" : 11.595187,
					"outlettype" : [ "int", "", "" ],
					"types" : [  ],
					"patching_rect" : [ 76.0, 76.0, 196.0, 20.0 ],
					"presentation" : 1,
					"id" : "obj-22",
					"fontname" : "Arial",
					"numinlets" : 1,
					"presentation_rect" : [ 39.0, 81.0, 196.0, 20.0 ]
				}

			}
, 			{
				"box" : 				{
					"maxclass" : "newobj",
					"text" : "loadmess 0",
					"numoutlets" : 1,
					"fontsize" : 11.595187,
					"outlettype" : [ "" ],
					"patching_rect" : [ 76.0, 23.0, 70.0, 20.0 ],
					"id" : "obj-28",
					"fontname" : "Arial",
					"numinlets" : 1
				}

			}
, 			{
				"box" : 				{
					"maxclass" : "newobj",
					"text" : "notein",
					"numoutlets" : 3,
					"fontsize" : 12.0,
					"outlettype" : [ "int", "int", "int" ],
					"patching_rect" : [ 802.0, 297.0, 46.0, 20.0 ],
					"id" : "obj-2",
					"fontname" : "Arial",
					"numinlets" : 1
				}

			}
, 			{
				"box" : 				{
					"maxclass" : "newobj",
					"text" : "s lfo_1",
					"numoutlets" : 0,
					"fontsize" : 12.0,
					"patching_rect" : [ 192.0, 409.0, 46.0, 20.0 ],
					"id" : "obj-89",
					"fontname" : "Arial",
					"numinlets" : 1
				}

			}
, 			{
				"box" : 				{
					"maxclass" : "newobj",
					"text" : "s lfo_0",
					"numoutlets" : 0,
					"fontsize" : 12.0,
					"patching_rect" : [ 141.0, 409.0, 46.0, 20.0 ],
					"id" : "obj-88",
					"fontname" : "Arial",
					"numinlets" : 1
				}

			}
, 			{
				"box" : 				{
					"maxclass" : "number",
					"numoutlets" : 2,
					"fontsize" : 12.0,
					"outlettype" : [ "int", "bang" ],
					"patching_rect" : [ 265.0, 190.0, 50.0, 20.0 ],
					"presentation" : 1,
					"id" : "obj-56",
					"fontname" : "Arial",
					"numinlets" : 1,
					"presentation_rect" : [ 39.0, 186.0, 50.0, 20.0 ]
				}

			}
, 			{
				"box" : 				{
					"maxclass" : "number",
					"numoutlets" : 2,
					"fontsize" : 12.0,
					"outlettype" : [ "int", "bang" ],
					"patching_rect" : [ 265.0, 165.0, 50.0, 20.0 ],
					"presentation" : 1,
					"id" : "obj-46",
					"fontname" : "Arial",
					"numinlets" : 1,
					"presentation_rect" : [ 39.0, 161.0, 50.0, 20.0 ]
				}

			}
, 			{
				"box" : 				{
					"maxclass" : "number",
					"numoutlets" : 2,
					"fontsize" : 12.0,
					"outlettype" : [ "int", "bang" ],
					"patching_rect" : [ 265.0, 140.0, 50.0, 20.0 ],
					"presentation" : 1,
					"id" : "obj-29",
					"fontname" : "Arial",
					"numinlets" : 1,
					"presentation_rect" : [ 39.0, 136.0, 50.0, 20.0 ]
				}

			}
, 			{
				"box" : 				{
					"maxclass" : "newobj",
					"text" : "ctlin",
					"numoutlets" : 3,
					"fontsize" : 9.0,
					"outlettype" : [ "int", "int", "int" ],
					"patching_rect" : [ 76.0, 109.0, 111.0, 17.0 ],
					"id" : "obj-4",
					"fontname" : "Arial",
					"numinlets" : 1
				}

			}
 ],
		"lines" : [ 			{
				"patchline" : 				{
					"source" : [ "obj-2", 1 ],
					"destination" : [ "obj-13", 0 ],
					"hidden" : 0,
					"midpoints" : [  ]
				}

			}
, 			{
				"patchline" : 				{
					"source" : [ "obj-2", 0 ],
					"destination" : [ "obj-14", 0 ],
					"hidden" : 0,
					"midpoints" : [  ]
				}

			}
, 			{
				"patchline" : 				{
					"source" : [ "obj-5", 1 ],
					"destination" : [ "obj-2", 0 ],
					"hidden" : 0,
					"midpoints" : [  ]
				}

			}
, 			{
				"patchline" : 				{
					"source" : [ "obj-6", 0 ],
					"destination" : [ "obj-3", 1 ],
					"hidden" : 0,
					"midpoints" : [ 790.5, 180.0, 821.5, 180.0 ]
				}

			}
, 			{
				"patchline" : 				{
					"source" : [ "obj-3", 0 ],
					"destination" : [ "obj-5", 0 ],
					"hidden" : 0,
					"midpoints" : [  ]
				}

			}
, 			{
				"patchline" : 				{
					"source" : [ "obj-22", 1 ],
					"destination" : [ "obj-4", 0 ],
					"hidden" : 0,
					"midpoints" : [  ]
				}

			}
, 			{
				"patchline" : 				{
					"source" : [ "obj-21", 0 ],
					"destination" : [ "obj-22", 0 ],
					"hidden" : 0,
					"midpoints" : [  ]
				}

			}
, 			{
				"patchline" : 				{
					"source" : [ "obj-28", 0 ],
					"destination" : [ "obj-21", 1 ],
					"hidden" : 0,
					"midpoints" : [ 85.5, 47.0, 116.5, 47.0 ]
				}

			}
, 			{
				"patchline" : 				{
					"source" : [ "obj-4", 2 ],
					"destination" : [ "obj-29", 0 ],
					"hidden" : 0,
					"midpoints" : [  ]
				}

			}
, 			{
				"patchline" : 				{
					"source" : [ "obj-4", 1 ],
					"destination" : [ "obj-46", 0 ],
					"hidden" : 0,
					"midpoints" : [  ]
				}

			}
, 			{
				"patchline" : 				{
					"source" : [ "obj-4", 0 ],
					"destination" : [ "obj-56", 0 ],
					"hidden" : 0,
					"midpoints" : [  ]
				}

			}
, 			{
				"patchline" : 				{
					"source" : [ "obj-4", 2 ],
					"destination" : [ "obj-15", 3 ],
					"hidden" : 0,
					"midpoints" : [  ]
				}

			}
, 			{
				"patchline" : 				{
					"source" : [ "obj-4", 1 ],
					"destination" : [ "obj-15", 2 ],
					"hidden" : 0,
					"midpoints" : [  ]
				}

			}
, 			{
				"patchline" : 				{
					"source" : [ "obj-4", 0 ],
					"destination" : [ "obj-16", 0 ],
					"hidden" : 0,
					"midpoints" : [  ]
				}

			}
, 			{
				"patchline" : 				{
					"source" : [ "obj-16", 1 ],
					"destination" : [ "obj-15", 1 ],
					"hidden" : 0,
					"midpoints" : [  ]
				}

			}
, 			{
				"patchline" : 				{
					"source" : [ "obj-16", 0 ],
					"destination" : [ "obj-15", 0 ],
					"hidden" : 0,
					"midpoints" : [  ]
				}

			}
, 			{
				"patchline" : 				{
					"source" : [ "obj-34", 0 ],
					"destination" : [ "obj-1", 0 ],
					"hidden" : 0,
					"midpoints" : [  ]
				}

			}
, 			{
				"patchline" : 				{
					"source" : [ "obj-31", 0 ],
					"destination" : [ "obj-34", 0 ],
					"hidden" : 0,
					"midpoints" : [  ]
				}

			}
, 			{
				"patchline" : 				{
					"source" : [ "obj-32", 0 ],
					"destination" : [ "obj-34", 0 ],
					"hidden" : 0,
					"midpoints" : [  ]
				}

			}
, 			{
				"patchline" : 				{
					"source" : [ "obj-30", 0 ],
					"destination" : [ "obj-34", 0 ],
					"hidden" : 0,
					"midpoints" : [  ]
				}

			}
, 			{
				"patchline" : 				{
					"source" : [ "obj-23", 0 ],
					"destination" : [ "obj-34", 0 ],
					"hidden" : 0,
					"midpoints" : [  ]
				}

			}
, 			{
				"patchline" : 				{
					"source" : [ "obj-17", 0 ],
					"destination" : [ "obj-34", 0 ],
					"hidden" : 0,
					"midpoints" : [  ]
				}

			}
, 			{
				"patchline" : 				{
					"source" : [ "obj-33", 0 ],
					"destination" : [ "obj-34", 0 ],
					"hidden" : 0,
					"midpoints" : [  ]
				}

			}
, 			{
				"patchline" : 				{
					"source" : [ "obj-40", 0 ],
					"destination" : [ "obj-33", 0 ],
					"hidden" : 0,
					"midpoints" : [  ]
				}

			}
, 			{
				"patchline" : 				{
					"source" : [ "obj-39", 0 ],
					"destination" : [ "obj-32", 0 ],
					"hidden" : 0,
					"midpoints" : [  ]
				}

			}
, 			{
				"patchline" : 				{
					"source" : [ "obj-38", 0 ],
					"destination" : [ "obj-31", 0 ],
					"hidden" : 0,
					"midpoints" : [  ]
				}

			}
, 			{
				"patchline" : 				{
					"source" : [ "obj-37", 0 ],
					"destination" : [ "obj-30", 0 ],
					"hidden" : 0,
					"midpoints" : [  ]
				}

			}
, 			{
				"patchline" : 				{
					"source" : [ "obj-36", 0 ],
					"destination" : [ "obj-23", 0 ],
					"hidden" : 0,
					"midpoints" : [  ]
				}

			}
, 			{
				"patchline" : 				{
					"source" : [ "obj-35", 0 ],
					"destination" : [ "obj-17", 0 ],
					"hidden" : 0,
					"midpoints" : [  ]
				}

			}
, 			{
				"patchline" : 				{
					"source" : [ "obj-15", 0 ],
					"destination" : [ "obj-1", 0 ],
					"hidden" : 0,
					"midpoints" : [  ]
				}

			}
, 			{
				"patchline" : 				{
					"source" : [ "obj-1", 1 ],
					"destination" : [ "obj-44", 1 ],
					"hidden" : 0,
					"midpoints" : [  ]
				}

			}
, 			{
				"patchline" : 				{
					"source" : [ "obj-1", 0 ],
					"destination" : [ "obj-44", 0 ],
					"hidden" : 0,
					"midpoints" : [  ]
				}

			}
, 			{
				"patchline" : 				{
					"source" : [ "obj-44", 0 ],
					"destination" : [ "obj-45", 0 ],
					"hidden" : 0,
					"midpoints" : [  ]
				}

			}
, 			{
				"patchline" : 				{
					"source" : [ "obj-45", 0 ],
					"destination" : [ "obj-88", 0 ],
					"hidden" : 0,
					"midpoints" : [  ]
				}

			}
, 			{
				"patchline" : 				{
					"source" : [ "obj-45", 1 ],
					"destination" : [ "obj-89", 0 ],
					"hidden" : 0,
					"midpoints" : [  ]
				}

			}
, 			{
				"patchline" : 				{
					"source" : [ "obj-45", 2 ],
					"destination" : [ "obj-8", 0 ],
					"hidden" : 0,
					"midpoints" : [  ]
				}

			}
, 			{
				"patchline" : 				{
					"source" : [ "obj-45", 3 ],
					"destination" : [ "obj-7", 0 ],
					"hidden" : 0,
					"midpoints" : [  ]
				}

			}
, 			{
				"patchline" : 				{
					"source" : [ "obj-45", 4 ],
					"destination" : [ "obj-12", 0 ],
					"hidden" : 0,
					"midpoints" : [  ]
				}

			}
, 			{
				"patchline" : 				{
					"source" : [ "obj-45", 5 ],
					"destination" : [ "obj-11", 0 ],
					"hidden" : 0,
					"midpoints" : [  ]
				}

			}
, 			{
				"patchline" : 				{
					"source" : [ "obj-41", 0 ],
					"destination" : [ "obj-21", 1 ],
					"hidden" : 0,
					"midpoints" : [  ]
				}

			}
, 			{
				"patchline" : 				{
					"source" : [ "obj-42", 0 ],
					"destination" : [ "obj-3", 1 ],
					"hidden" : 0,
					"midpoints" : [  ]
				}

			}
 ]
	}

}
